<?xml version="1.0" encoding="UTF-8"?>
<svg width="512" height="512" xmlns="http://www.w3.org/2000/svg" xmlns:svg="http://www.w3.org/2000/svg">

 <g>
  <title>Layer 1</title>
  <g id="afcae5a789ccd549f9c6e2a2f80fa471">
   <g id="svg_1"/>
   <path fill="#ff0000" id="svg_2" d="m256,43.083c117.403015,0 212.917023,95.512993 212.917023,212.917c0,117.403015 -95.514008,212.917023 -212.917023,212.917023c-117.404007,0 -212.917011,-95.514008 -212.917011,-212.917023c0.000011,-117.404007 95.513004,-212.917 212.917011,-212.917m0,-42.583c-141.107002,0 -255.5,114.392998 -255.5,255.5c0,141.105988 114.392998,255.5 255.5,255.5c141.105988,0 255.5,-114.394012 255.5,-255.5c0,-141.107002 -114.394012,-255.5 -255.5,-255.5l0,0zm21.291992,234.207993l0,-149.040993l-42.583008,0l0,149.042015l0,42.583984l42.583008,0l85.165985,0l0,-42.583984l-85.165985,0l0,-0.001022z"/>
  </g>
 </g>
</svg>