<?xml version="1.0" encoding="UTF-8"?>
<svg width="140" height="190" xmlns="http://www.w3.org/2000/svg" xmlns:svg="http://www.w3.org/2000/svg" xmlns:xlink="http://www.w3.org/1999/xlink">
 <defs>
  <linearGradient id="linearGradient8303">
   <stop offset="0" id="stop8314" stop-color="#000086"/>
   <stop offset="1" id="stop8316" stop-color="#005aff"/>
  </linearGradient>
  <linearGradient x1="0.095745" y1="0.0625" x2="0.946809" y2="0.90625" id="linearGradient9086" xlink:href="#linearGradient8303"/>
  <pattern id="pattern10642" patternTransform="translate(15.00000,-5.000000)" height="13.750009" width="14.142157" patternUnits="userSpaceOnUse">
   <g transform="translate(31.25001,-2.928924)" id="g10644" fill="#ffffff">
    <rect transform="matrix(0.707107,0.707107,-0.707107,0.707107,0.000000,0.000000)" y="21.668146" x="-17.526024" height="5.000003" width="5.000003" id="rect10646" stroke-miterlimit="4" stroke-width="1.25"/>
    <rect transform="matrix(0.707107,0.707107,-0.707107,0.707107,0.000000,0.000000)" y="26.390863" x="-12.80331" height="5.000006" width="5.000006" id="rect10648" stroke-miterlimit="4" stroke-width="1.25"/>
    <rect transform="matrix(0.707107,0.707107,-0.707107,0.707107,0.000000,0.000000)" y="16.668142" x="-12.526019" height="5.000006" width="5.000006" id="rect10650" stroke-miterlimit="4" stroke-width="1.25"/>
    <rect transform="matrix(0.707107,0.707107,-0.707107,0.707107,0.000000,0.000000)" y="21.390858" x="-7.803304" height="5.000006" width="5.000006" id="rect10652" stroke-miterlimit="4" stroke-width="1.25"/>
   </g>
  </pattern>
 </defs>
 <metadata>cardcardbackNicu BuculeiNicu Buculeiimage/svg+xmlen</metadata>
 <g>
  <title>Layer 1</title>
  <g id="g5630">
   <path d="m21,5l103,0c8.863998,0 16,7.136 16,16l0,153c0,8.863998 -7.136002,16 -16,16l-103,0c-8.864,0 -16,-7.136002 -16,-16l0,-153c0,-8.864 7.136,-16 16,-16z" id="rect2070" stroke-dashoffset="0" stroke-miterlimit="4" stroke-width="0.2" fill-opacity="0.498039" fill="#00007f"/>
   <path d="m17,1l103,0c8.863998,0 16,7.136 16,16l0,153c0,8.863998 -7.136002,16 -16,16l-103,0c-8.864,0 -16,-7.136002 -16,-16l0,-153c0,-8.864 7.136,-16 16,-16z" id="rect1300" stroke-dashoffset="0" stroke-miterlimit="4" stroke-width="0.2" fill="#00007f"/>
   <path d="m19,3l103,0c8.863998,0 16,7.136 16,16l0,153c0,8.863998 -7.136002,16 -16,16l-103,0c-8.864,0 -16,-7.136002 -16,-16l0,-153c0,-8.864 7.136,-16 16,-16z" id="path5624" stroke-dashoffset="0" stroke-miterlimit="4" stroke-width="0.2" fill="#00007f"/>
   <path d="m18,2l103,0c8.863998,0 16,7.136 16,16l0,153c0,8.863998 -7.136002,16 -16,16l-103,0c-8.864,0 -16,-7.136002 -16,-16l0,-153c0,-8.864 7.136,-16 16,-16z" id="rect1306" stroke-dashoffset="0" stroke-miterlimit="4" stroke-width="0.2" fill="#00007f"/>
  </g>
  <path opacity="0.85" d="m22.166666,10l94.416662,0c8.125343,0 14.666672,6.541332 14.666672,14.666666l0,140.24999c0,8.125351 -6.541328,14.666672 -14.666672,14.666672l-94.416662,0c-8.125333,0 -14.666666,-6.541321 -14.666666,-14.666672l0,-140.24999c0,-8.125334 6.541333,-14.666666 14.666666,-14.666666z" id="path1385" stroke-dashoffset="0" stroke-miterlimit="4" stroke-width="0.2" fill="#ffffff"/>
  <path d="m22.15625,9.375c-8.460772,0 -15.28125,6.820478 -15.28125,15.28125l0,140.25c0,8.460785 6.820478,15.3125 15.28125,15.3125l94.4375,0c8.460777,0 15.28125,-6.851715 15.28125,-15.3125l0,-140.25c0,-8.460772 -6.820473,-15.28125 -15.28125,-15.28125l-94.4375,0zm0,1.25l94.4375,0c7.789902,0 14.03125,6.241356 14.03125,14.03125l0,140.25c0,7.789902 -6.241348,14.0625 -14.03125,14.0625l-94.4375,0c-7.789894,0 -14.03125,-6.272598 -14.03125,-14.0625l0,-140.25c0,-7.789894 6.241356,-14.03125 14.03125,-14.03125z" id="path2154" stroke-dashoffset="0" stroke-miterlimit="4" stroke-width="1.25" fill="url(#linearGradient9086)"/>
  <polygon fill="#ffffff" points="454.15149688720703,30.45208740234375 438.11410903930664,45.696502685546875 422.0767402648926,30.45208740234375 438.11410903930664,15.207664489746094 454.15149688720703,30.45208740234375 " stroke-width="0.2" id="svg_8"/>
  <polygon fill="#ffffff" points="515.70361328125,30.05625405907631 499.66619873046875,45.300669342279434 483.62884521484375,30.05625405907631 499.66619873046875,14.811838775873184 515.70361328125,30.05625405907631 " stroke-width="0.2" id="svg_9"/>
  <polygon fill="#ffffff" points="484.67962646484375,30.05625405907631 468.64227294921875,45.300669342279434 452.60491943359375,30.05625405907631 468.64227294921875,14.811838775873184 484.67962646484375,30.05625405907631 " stroke-width="0.2" id="svg_10"/>
  <polygon id="svg_39" fill="#ffffff"/>
 </g>
</svg>