<?xml version="1.0" encoding="UTF-8"?>
<svg width="140" height="190" xmlns="http://www.w3.org/2000/svg" xmlns:svg="http://www.w3.org/2000/svg" xmlns:xlink="http://www.w3.org/1999/xlink">
 <defs>
  <linearGradient id="linearGradient8303">
   <stop stop-color="#000086" id="stop8314" offset="0"/>
   <stop stop-color="#005aff" id="stop8316" offset="1"/>
  </linearGradient>
  <linearGradient id="linearGradient2060">
   <stop stop-color="#ebf0d0" id="stop2062" offset="0"/>
   <stop stop-color="#ffffeb" id="stop2064" offset="1"/>
  </linearGradient>
  <linearGradient xlink:href="#linearGradient2060" id="linearGradient4853" y2="0.679432" x2="0.792593" y1="0.324862" x1="0"/>
  <linearGradient xlink:href="#linearGradient8303" id="linearGradient8318" y2="0.070313" x2="0.191489" y1="0.953132" x1="0.893617"/>
  <linearGradient xlink:href="#linearGradient8303" id="linearGradient9086" y2="0.90625" x2="0.946809" y1="0.0625" x1="0.095745"/>
  <pattern patternUnits="userSpaceOnUse" width="14.142157" height="13.750009" patternTransform="translate(15.00000,-5.000000)" id="pattern10642">
   <g fill="#ffffff" id="g10644" transform="translate(31.25001,-2.928924)">
    <rect stroke-width="1.25" stroke-miterlimit="4" id="rect10646" width="5.000003" height="5.000003" x="-17.526024" y="21.668146" transform="matrix(0.707107,0.707107,-0.707107,0.707107,0.000000,0.000000)"/>
    <rect stroke-width="1.25" stroke-miterlimit="4" id="rect10648" width="5.000006" height="5.000006" x="-12.80331" y="26.390863" transform="matrix(0.707107,0.707107,-0.707107,0.707107,0.000000,0.000000)"/>
    <rect stroke-width="1.25" stroke-miterlimit="4" id="rect10650" width="5.000006" height="5.000006" x="-12.526019" y="16.668142" transform="matrix(0.707107,0.707107,-0.707107,0.707107,0.000000,0.000000)"/>
    <rect stroke-width="1.25" stroke-miterlimit="4" id="rect10652" width="5.000006" height="5.000006" x="-7.803304" y="21.390858" transform="matrix(0.707107,0.707107,-0.707107,0.707107,0.000000,0.000000)"/>
   </g>
  </pattern>
 </defs>
 <metadata>cardcardbackNicu BuculeiNicu Buculeiimage/svg+xmlen</metadata>
 <g>
  <title>Layer 1</title>
  <g id="g5630">
   <path fill="#000000" fill-opacity="0.498039" stroke-width="0.2" stroke-miterlimit="4" stroke-dashoffset="0" id="rect2070" d="m21,5l103,0c8.863998,0 16,7.136 16,16l0,153c0,8.863998 -7.136002,16 -16,16l-103,0c-8.864,0 -16,-7.136002 -16,-16l0,-153c0,-8.864 7.136,-16 16,-16z"/>
   <path fill="#ffffff" stroke-width="0.2" stroke-miterlimit="4" stroke-dashoffset="0" id="rect1300" d="m17,1l103,0c8.863998,0 16,7.136 16,16l0,153c0,8.863998 -7.136002,16 -16,16l-103,0c-8.864,0 -16,-7.136002 -16,-16l0,-153c0,-8.864 7.136,-16 16,-16z"/>
   <path fill="#c7891f" stroke-width="0.2" stroke-miterlimit="4" stroke-dashoffset="0" id="path5624" d="m19,3l103,0c8.863998,0 16,7.136 16,16l0,153c0,8.863998 -7.136002,16 -16,16l-103,0c-8.864,0 -16,-7.136002 -16,-16l0,-153c0,-8.864 7.136,-16 16,-16z"/>
   <path fill="url(#linearGradient4853)" stroke-width="0.2" stroke-miterlimit="4" stroke-dashoffset="0" id="rect1306" d="m18,2l103,0c8.863998,0 16,7.136 16,16l0,153c0,8.863998 -7.136002,16 -16,16l-103,0c-8.864,0 -16,-7.136002 -16,-16l0,-153c0,-8.864 7.136,-16 16,-16z"/>
  </g>
  <path fill="url(#linearGradient8318)" stroke-width="0.2" stroke-miterlimit="4" stroke-dashoffset="0" id="path1385" d="m22.166666,10l94.416662,0c8.125343,0 14.666672,6.541332 14.666672,14.666666l0,140.24999c0,8.125351 -6.541328,14.666672 -14.666672,14.666672l-94.416662,0c-8.125333,0 -14.666666,-6.541321 -14.666666,-14.666672l0,-140.24999c0,-8.125334 6.541333,-14.666666 14.666666,-14.666666z"/>
  <path transform="translate(-427.896, -0.791667) translate(1.58333) translate(184.458, -54.2292) translate(0.395833, 0.395833)" fill="url(#pattern10642)" stroke-width="0.2" stroke-miterlimit="4" stroke-dashoffset="0" id="path9846" d="m22.166666,10l94.416662,0c8.125343,0 14.666672,6.541332 14.666672,14.666666l0,140.24999c0,8.125351 -6.541328,14.666672 -14.666672,14.666672l-94.416662,0c-8.125333,0 -14.666666,-6.541321 -14.666666,-14.666672l0,-140.24999c0,-8.125334 6.541333,-14.666666 14.666666,-14.666666z"/>
  <path fill="url(#linearGradient9086)" stroke-width="1.25" stroke-miterlimit="4" stroke-dashoffset="0" id="path2154" d="m22.15625,9.375c-8.460772,0 -15.28125,6.820478 -15.28125,15.28125l0,140.25c0,8.460785 6.820478,15.3125 15.28125,15.3125l94.4375,0c8.460777,0 15.28125,-6.851715 15.28125,-15.3125l0,-140.25c0,-8.460772 -6.820473,-15.28125 -15.28125,-15.28125l-94.4375,0zm0,1.25l94.4375,0c7.789902,0 14.03125,6.241356 14.03125,14.03125l0,140.25c0,7.789902 -6.241348,14.0625 -14.03125,14.0625l-94.4375,0c-7.789894,0 -14.03125,-6.272598 -14.03125,-14.0625l0,-140.25c0,-7.789894 6.241356,-14.03125 14.03125,-14.03125z"/>
  <polygon id="svg_7" stroke-width="0.2" points="113.19210498936445,45.49354024443892 98.14440408341761,61.52987322500849 83.09672700592546,45.49354024443892 98.14440408341761,29.45719553015033 113.19210498936445,45.49354024443892 " strokeWidth="0.2" strokecolor="none" fill="#ffffff" edge="66.063192" orient="x" sides="4" shape="regularPoly" cy="50.66667" cx="117.974987"/>
  <polygon id="svg_8" stroke-width="0.2" points="454.15149688720703,30.45208740234375 438.11410903930664,45.696502685546875 422.0767402648926,30.45208740234375 438.11410903930664,15.207664489746094 454.15149688720703,30.45208740234375 " strokeWidth="0.2" strokecolor="none" fill="#ffffff" edge="66.063192" orient="x" sides="4" shape="regularPoly" cy="50.66667" cx="117.974987"/>
  <polygon id="svg_9" stroke-width="0.2" points="515.70361328125,30.05625405907631 499.66619873046875,45.300669342279434 483.62884521484375,30.05625405907631 499.66619873046875,14.811838775873184 515.70361328125,30.05625405907631 " strokeWidth="0.2" strokecolor="none" fill="#ffffff" edge="66.063192" orient="x" sides="4" shape="regularPoly" cy="50.66667" cx="117.974987"/>
  <polygon id="svg_10" stroke-width="0.2" points="484.67962646484375,30.05625405907631 468.64227294921875,45.300669342279434 452.60491943359375,30.05625405907631 468.64227294921875,14.811838775873184 484.67962646484375,30.05625405907631 " strokeWidth="0.2" strokecolor="none" fill="#ffffff" edge="66.063192" orient="x" sides="4" shape="regularPoly" cy="50.66667" cx="117.974987"/>
  <g id="svg_15">
   <polygon stroke-width="0.2" points="44.20519256591797,162.82206392288208 26.49921989440918,179.4567837715149 8.793232917785645,162.82206392288208 26.49921989440918,146.1873745918274 44.20519256591797,162.82206392288208 " strokeWidth="0.2" strokecolor="none" fill="#ffffff" edge="176.803096" orient="x" sides="4" shape="regularPoly" id="svg_1" cy="29.925" cx="-191.091661"/>
   <polygon id="svg_11" stroke-width="0.2" points="44.221893310546875,128.97481966018677 26.515918731689453,145.60953950881958 8.809916496276855,128.97481966018677 26.515918731689453,112.34012269973755 44.221893310546875,128.97481966018677 " strokeWidth="0.2" strokecolor="none" fill="#ffffff" edge="176.803096" orient="x" sides="4" shape="regularPoly" cy="29.925" cx="-191.091661"/>
   <polygon id="svg_12" stroke-width="0.2" points="43.344024658203125,95.56890535354614 25.638051986694336,112.20362520217896 7.932048320770264,95.56890535354614 25.638051986694336,78.93421602249146 43.344024658203125,95.56890535354614 " strokeWidth="0.2" strokecolor="none" fill="#ffffff" edge="176.803096" orient="x" sides="4" shape="regularPoly" cy="29.925" cx="-191.091661"/>
   <polygon id="svg_13" stroke-width="0.2" points="43.34404373168945,62.5754017829895 25.63807487487793,79.21012544631958 7.932070732116699,62.5754017829895 25.63807487487793,45.940720081329346 43.34404373168945,62.5754017829895 " strokeWidth="0.2" strokecolor="none" fill="#ffffff" edge="176.803096" orient="x" sides="4" shape="regularPoly" cy="29.925" cx="-191.091661"/>
   <polygon id="svg_14" stroke-width="0.2" points="43.34404373168945,28.757078647613525 25.63807487487793,45.39180040359497 7.932070732116699,28.757078647613525 25.63807487487793,12.122384548187256 43.34404373168945,28.757078647613525 " strokeWidth="0.2" strokecolor="none" fill="#ffffff" edge="176.803096" orient="x" sides="4" shape="regularPoly" cy="29.925" cx="-191.091661"/>
  </g>
  <g id="svg_16">
   <polygon id="svg_17" stroke-width="0.2" points="74.41780853271484,162.82207250595093 56.71181106567383,179.45677709579468 39.0058479309082,162.82207250595093 56.71181106567383,146.18736791610718 74.41780853271484,162.82207250595093 " strokeWidth="0.2" strokecolor="none" fill="#ffffff" edge="176.803096" orient="x" sides="4" shape="regularPoly" cy="29.925" cx="-191.091661"/>
   <polygon id="svg_18" stroke-width="0.2" points="74.43450164794922,128.97481298446655 56.72853469848633,145.60954809188843 39.02251052856445,128.97481298446655 56.72853469848633,112.34012365341187 74.43450164794922,128.97481298446655 " strokeWidth="0.2" strokecolor="none" fill="#ffffff" edge="176.803096" orient="x" sides="4" shape="regularPoly" cy="29.925" cx="-191.091661"/>
   <polygon id="svg_19" stroke-width="0.2" points="73.55663299560547,95.56890630722046 55.85066604614258,112.20362615585327 38.1446418762207,95.56890630722046 55.85066604614258,78.93421697616577 73.55663299560547,95.56890630722046 " strokeWidth="0.2" strokecolor="none" fill="#ffffff" edge="176.803096" orient="x" sides="4" shape="regularPoly" cy="29.925" cx="-191.091661"/>
   <polygon id="svg_20" stroke-width="0.2" points="73.5566635131836,62.57539892196655 55.85066604614258,79.2101263999939 38.14467239379883,62.57539892196655 55.85066604614258,45.94072103500366 73.5566635131836,62.57539892196655 " strokeWidth="0.2" strokecolor="none" fill="#ffffff" edge="176.803096" orient="x" sides="4" shape="regularPoly" cy="29.925" cx="-191.091661"/>
   <polygon id="svg_21" stroke-width="0.2" points="73.5566635131836,28.75707769393921 55.85066604614258,45.39180135726929 38.14467239379883,28.75707769393921 55.85066604614258,12.122384548187256 73.5566635131836,28.75707769393921 " strokeWidth="0.2" strokecolor="none" fill="#ffffff" edge="176.803096" orient="x" sides="4" shape="regularPoly" cy="29.925" cx="-191.091661"/>
  </g>
  <g id="svg_22">
   <polygon id="svg_23" stroke-width="0.2" points="130.62612915039062,162.82208490371704 112.92013549804688,179.4567894935608 95.21417236328125,162.82208490371704 112.92013549804688,146.1873803138733 130.62612915039062,162.82208490371704 " strokeWidth="0.2" strokecolor="none" fill="#ffffff" edge="176.803096" orient="x" sides="4" shape="regularPoly" cy="29.925" cx="-191.091661"/>
   <polygon id="svg_24" stroke-width="0.2" points="130.642822265625,128.9748101234436 112.93685913085938,145.60956048965454 95.2308349609375,128.9748101234436 112.93685913085938,112.34012842178345 130.642822265625,128.9748101234436 " strokeWidth="0.2" strokecolor="none" fill="#ffffff" edge="176.803096" orient="x" sides="4" shape="regularPoly" cy="29.925" cx="-191.091661"/>
   <polygon id="svg_25" stroke-width="0.2" points="129.76495361328125,95.56891107559204 112.05899047851562,112.20363092422485 94.35296630859375,95.56891107559204 112.05899047851562,78.93422174453735 129.76495361328125,95.56891107559204 " strokeWidth="0.2" strokecolor="none" fill="#ffffff" edge="176.803096" orient="x" sides="4" shape="regularPoly" cy="29.925" cx="-191.091661"/>
   <polygon id="svg_26" stroke-width="0.2" points="129.76498413085938,62.5754075050354 112.05899047851562,79.21013116836548 94.35299682617188,62.5754075050354 112.05899047851562,45.94072961807251 129.76498413085938,62.5754075050354 " strokeWidth="0.2" strokecolor="none" fill="#ffffff" edge="176.803096" orient="x" sides="4" shape="regularPoly" cy="29.925" cx="-191.091661"/>
   <polygon id="svg_27" stroke-width="0.2" points="129.76498413085938,28.75708246231079 112.05899047851562,45.391809940338135 94.35299682617188,28.75708246231079 112.05899047851562,12.122392177581787 129.76498413085938,28.75708246231079 " strokeWidth="0.2" strokecolor="none" fill="#ffffff" edge="176.803096" orient="x" sides="4" shape="regularPoly" cy="29.925" cx="-191.091661"/>
  </g>
  <g id="svg_28">
   <polygon id="svg_29" stroke-width="0.2" points="102.91780090332031,162.82207536697388 85.21180725097656,179.45677995681763 67.50584411621094,162.82207536697388 85.21180725097656,146.18737077713013 102.91780090332031,162.82207536697388 " strokeWidth="0.2" strokecolor="none" fill="#ffffff" edge="176.803096" orient="x" sides="4" shape="regularPoly" cy="29.925" cx="-191.091661"/>
   <polygon id="svg_30" stroke-width="0.2" points="102.93449401855469,128.9748158454895 85.22853088378906,145.60955095291138 67.52250671386719,128.9748158454895 85.22853088378906,112.34013414382935 102.93449401855469,128.9748158454895 " strokeWidth="0.2" strokecolor="none" fill="#ffffff" edge="176.803096" orient="x" sides="4" shape="regularPoly" cy="29.925" cx="-191.091661"/>
   <polygon id="svg_31" stroke-width="0.2" points="102.05662536621094,95.56891679763794 84.35066223144531,112.20363664627075 66.64463806152344,95.56891679763794 84.35066223144531,78.93422746658325 102.05662536621094,95.56891679763794 " strokeWidth="0.2" strokecolor="none" fill="#ffffff" edge="176.803096" orient="x" sides="4" shape="regularPoly" cy="29.925" cx="-191.091661"/>
   <polygon id="svg_32" stroke-width="0.2" points="102.05665588378906,62.57540559768677 84.35066223144531,79.21013689041138 66.64466857910156,62.57540559768677 84.35066223144531,45.94072771072388 102.05665588378906,62.57540559768677 " strokeWidth="0.2" strokecolor="none" fill="#ffffff" edge="176.803096" orient="x" sides="4" shape="regularPoly" cy="29.925" cx="-191.091661"/>
   <polygon id="svg_33" stroke-width="0.2" points="102.05665588378906,28.757084369659424 84.35066223144531,45.3918080329895 66.64466857910156,28.757084369659424 84.35066223144531,12.122392177581787 102.05665588378906,28.757084369659424 " strokeWidth="0.2" strokecolor="none" fill="#ffffff" edge="176.803096" orient="x" sides="4" shape="regularPoly" cy="29.925" cx="-191.091661"/>
  </g>
  <polygon id="svg_34" stroke-width="0.2" points="114.08726501464844,111.82083654403687 99.03956604003906,127.85716772079468 83.99189758300781,111.82083654403687 99.03956604003906,95.78449010848999 114.08726501464844,111.82083654403687 " strokeWidth="0.2" strokecolor="none" fill="#ffffff" edge="66.063192" orient="x" sides="4" shape="regularPoly" cy="50.66667" cx="117.974987"/>
  <polygon id="svg_35" stroke-width="0.2" points="85.98309326171875,145.66458892822266 70.93539428710938,162.29473114013672 55.887725830078125,145.66458892822266 70.93539428710938,129.03445053100586 85.98309326171875,145.66458892822266 " strokeWidth="0.2" strokecolor="none" fill="#ffffff" edge="66.063192" orient="x" sides="3" shape="regularPoly" cy="50.66667" cx="117.974987"/>
  <polygon id="svg_36" stroke-width="0.2" points="84.79559326171875,78.57083511352539 69.74789428710938,94.6071662902832 54.700225830078125,78.57083511352539 69.74789428710938,62.534488677978516 84.79559326171875,78.57083511352539 " strokeWidth="0.2" strokecolor="none" fill="#ffffff" edge="66.063192" orient="x" sides="4" shape="regularPoly" cy="50.66667" cx="117.974987"/>
  <polygon id="svg_37" stroke-width="0.2" points="56.69143884679579,45.32083152993255 40.65410248598346,61.752975977515234 24.616798649789416,45.32083152993255 40.65410248598346,28.888671446939043 56.69143884679579,45.32083152993255 " strokeWidth="0.2" strokecolor="none" fill="#ffffff" edge="66.063192" orient="x" sides="4" shape="regularPoly" cy="50.66667" cx="117.974987"/>
  <polygon id="svg_38" stroke-width="0.2" points="57.08726938532709,113.00833892822266 40.6540824566473,129.04466247558594 24.22091869518499,113.00833892822266 40.6540824566473,96.97199249267578 57.08726938532709,113.00833892822266 " strokeWidth="0.2" strokecolor="none" fill="#ffffff" edge="66.063192" orient="x" sides="4" shape="regularPoly" cy="50.66667" cx="117.974987"/>
  <polygon strokeWidth="0.2" strokecolor="none" fill="#ffffff" edge="0" orient="x" sides="3" shape="regularPoly" id="svg_39" cy="27.708334" cx="-91.025019"/>
  <polygon transform="rotate(-90, 41.4959, 172.187)" stroke-width="0.2" points="49.55982971191406,172.1876115327177 33.430782318115234,188.69436719802252 33.430782318115234,155.68088713476754 49.55982971191406,172.1876115327177 " strokeWidth="0.2" strokecolor="none" fill="#ffffff" edge="43.305074" orient="x" sides="3" shape="regularPoly" id="svg_40" cy="27.708334" cx="-91.025019"/>
  <polygon id="svg_41" transform="rotate(-90, 99.5788, 172.613)" stroke-width="0.2" points="107.6427812576294,172.61404418945312 91.5137300491333,189.1208038330078 91.5137300491333,156.10733032226562 107.6427812576294,172.61404418945312 " strokeWidth="0.2" strokecolor="none" fill="#ffffff" edge="43.305074" orient="x" sides="3" shape="regularPoly" cy="27.708334" cx="-91.025019"/>
 </g>
</svg>